<svg width="53" height="10" viewBox="0 0 53 10" fill="none" xmlns="http://www.w3.org/2000/svg">
<path d="M8.412 0.360001L6.9 9H4.728L5.28 5.88H2.94L2.4 9H0.228001L1.752 0.360001H3.912L3.264 4.008H5.604L6.252 0.360001H8.412Z" fill="url(#paint0_linear)"/>
<path d="M13.2632 0.276001C15.1912 0.276001 16.1552 1.064 16.1552 2.64C16.1552 2.904 16.1272 3.188 16.0712 3.492L15.6512 5.892C15.4592 7.004 15.0432 7.828 14.4032 8.364C13.7632 8.9 12.8632 9.168 11.7032 9.168C10.5432 9.168 9.73519 8.9 9.27919 8.364C8.96719 7.996 8.81119 7.488 8.81119 6.84C8.81119 6.552 8.84319 6.236 8.90719 5.892L9.32719 3.492C9.70319 1.348 11.0152 0.276001 13.2632 0.276001ZM12.0272 7.308C12.4272 7.308 12.7472 7.204 12.9872 6.996C13.2272 6.788 13.3952 6.404 13.4912 5.844L13.8992 3.54C13.9232 3.38 13.9352 3.236 13.9352 3.108C13.9352 2.46 13.6072 2.136 12.9512 2.136C12.1272 2.152 11.6352 2.62 11.4752 3.54L11.0672 5.844C11.0352 6.044 11.0192 6.252 11.0192 6.468C11.0192 7.028 11.3552 7.308 12.0272 7.308Z" fill="url(#paint1_linear)"/>
<path d="M20.6199 6.372H19.1919L18.7239 9H16.5639L18.0879 0.360001H21.7479C22.6519 0.360001 23.2959 0.568001 23.6799 0.984001C23.9599 1.304 24.0999 1.712 24.0999 2.208C24.0999 2.376 24.0839 2.552 24.0519 2.736L23.8119 4.092C23.6919 4.756 23.3399 5.304 22.7559 5.736C22.1719 6.16 21.4599 6.372 20.6199 6.372ZM20.9919 2.232H19.9119L19.5159 4.5H20.5839C21.2399 4.5 21.6199 4.208 21.7239 3.624L21.8079 3.132C21.8239 3.06 21.8319 2.964 21.8319 2.844C21.8319 2.724 21.7719 2.592 21.6519 2.448C21.5319 2.304 21.3119 2.232 20.9919 2.232Z" fill="url(#paint2_linear)"/>
<path d="M30.2403 9H24.2163L25.7403 0.360001H31.7643L31.4283 2.232H27.5643L27.2883 3.852H30.4803L30.1443 5.724H26.9523L26.7123 7.128H30.5763L30.2403 9Z" fill="url(#paint3_linear)"/>
<path d="M35.1745 6.9L37.4545 0.360001H39.7945L36.5185 9H32.6785L32.5825 0.360001H34.9345L34.8985 6.9H35.1745Z" fill="url(#paint4_linear)"/>
<path d="M45.4278 9H39.4038L40.9278 0.360001H46.9518L46.6158 2.232H42.7518L42.4758 3.852H45.6678L45.3318 5.724H42.1398L41.8998 7.128H45.7638L45.4278 9Z" fill="url(#paint5_linear)"/>
<path d="M52.282 9H46.81L48.334 0.360001H50.494L49.306 7.128H52.618L52.282 9Z" fill="url(#paint6_linear)"/>
<defs>
<linearGradient id="paint0_linear" x1="1.47958e-08" y1="5" x2="54" y2="5" gradientUnits="userSpaceOnUse">
<stop stop-color="#EF233C"/>
<stop offset="1" stop-color="#240B36"/>
</linearGradient>
<linearGradient id="paint1_linear" x1="1.47958e-08" y1="5" x2="54" y2="5" gradientUnits="userSpaceOnUse">
<stop stop-color="#EF233C"/>
<stop offset="1" stop-color="#240B36"/>
</linearGradient>
<linearGradient id="paint2_linear" x1="1.47958e-08" y1="5" x2="54" y2="5" gradientUnits="userSpaceOnUse">
<stop stop-color="#EF233C"/>
<stop offset="1" stop-color="#240B36"/>
</linearGradient>
<linearGradient id="paint3_linear" x1="1.47958e-08" y1="5" x2="54" y2="5" gradientUnits="userSpaceOnUse">
<stop stop-color="#EF233C"/>
<stop offset="1" stop-color="#240B36"/>
</linearGradient>
<linearGradient id="paint4_linear" x1="1.47958e-08" y1="5" x2="54" y2="5" gradientUnits="userSpaceOnUse">
<stop stop-color="#EF233C"/>
<stop offset="1" stop-color="#240B36"/>
</linearGradient>
<linearGradient id="paint5_linear" x1="1.47958e-08" y1="5" x2="54" y2="5" gradientUnits="userSpaceOnUse">
<stop stop-color="#EF233C"/>
<stop offset="1" stop-color="#240B36"/>
</linearGradient>
<linearGradient id="paint6_linear" x1="1.47958e-08" y1="5" x2="54" y2="5" gradientUnits="userSpaceOnUse">
<stop stop-color="#EF233C"/>
<stop offset="1" stop-color="#240B36"/>
</linearGradient>
</defs>
</svg>
