<svg width="46" height="14" viewBox="0 0 46 14" fill="none" xmlns="http://www.w3.org/2000/svg">
<path d="M8.412 1.36L6.9 10H4.728L5.28 6.88H2.94L2.4 10H0.228L1.752 1.36H3.912L3.264 5.008H5.604L6.252 1.36H8.412ZM12.2192 4.06C13.0832 4.06 13.7352 4.248 14.1752 4.624C14.5192 4.92 14.6912 5.332 14.6912 5.86C14.6912 6.036 14.6712 6.228 14.6312 6.436L14.3792 7.84C14.2272 8.688 13.8712 9.288 13.3112 9.64C12.7592 9.992 12.0192 10.168 11.0912 10.168C10.1632 10.168 9.48319 9.992 9.05119 9.64C8.73119 9.376 8.57119 8.98 8.57119 8.452C8.57119 8.268 8.59119 8.064 8.63119 7.84L8.88319 6.436C9.16319 4.852 10.2752 4.06 12.2192 4.06ZM12.5432 6.676C12.5592 6.596 12.5672 6.496 12.5672 6.376C12.5672 6.248 12.5152 6.108 12.4112 5.956C12.3072 5.804 12.1232 5.728 11.8592 5.728C11.6032 5.728 11.3872 5.816 11.2112 5.992C11.0352 6.16 10.9232 6.388 10.8752 6.676L10.7192 7.576C10.7032 7.656 10.6952 7.76 10.6952 7.888C10.6952 8.008 10.7472 8.14 10.8512 8.284C10.9552 8.428 11.1352 8.5 11.3912 8.5C11.6552 8.5 11.8752 8.412 12.0512 8.236C12.2272 8.052 12.3392 7.832 12.3872 7.576L12.5432 6.676ZM19.5686 4.072C20.3846 4.072 20.9486 4.288 21.2606 4.72C21.4846 5.016 21.5966 5.392 21.5966 5.848C21.5966 6.032 21.5766 6.228 21.5366 6.436L21.2966 7.84C21.1606 8.6 20.8686 9.18 20.4206 9.58C19.9726 9.972 19.4126 10.168 18.7406 10.168C18.0686 10.168 17.6006 9.988 17.3366 9.628L16.6886 13.336H14.6486L16.2566 4.228H18.1046L18.0446 4.552C18.4206 4.232 18.9286 4.072 19.5686 4.072ZM18.3206 8.44C18.5446 8.44 18.7526 8.368 18.9446 8.224C19.1366 8.08 19.2566 7.864 19.3046 7.576L19.4606 6.676C19.4766 6.596 19.4846 6.496 19.4846 6.376C19.4846 6.256 19.4326 6.128 19.3286 5.992C19.2246 5.856 19.0446 5.788 18.7886 5.788C18.3726 5.788 18.1006 5.888 17.9726 6.088L17.6126 8.104C17.7246 8.328 17.9606 8.44 18.3206 8.44ZM24.7427 10.168C23.0787 10.168 22.2467 9.592 22.2467 8.44C22.2467 8.28 22.2627 8.108 22.2947 7.924L22.5467 6.436C22.6827 5.668 23.0347 5.08 23.6027 4.672C24.1787 4.256 24.9387 4.048 25.8827 4.048C27.4907 4.048 28.2947 4.656 28.2947 5.872C28.2947 6.048 28.2787 6.24 28.2467 6.448L28.1027 7.3H24.4427L24.3947 7.576C24.3787 7.672 24.3707 7.76 24.3707 7.84C24.3707 8.28 24.6307 8.5 25.1507 8.5C25.3427 8.5 25.5067 8.44 25.6427 8.32C25.7787 8.2 25.8587 8.06 25.8827 7.9L27.8747 7.924C27.6107 9.42 26.5667 10.168 24.7427 10.168ZM26.1827 6.568C26.2147 6.432 26.2307 6.308 26.2307 6.196C26.2307 6.076 26.1787 5.956 26.0747 5.836C25.9707 5.716 25.8027 5.656 25.5707 5.656C25.3467 5.656 25.1387 5.732 24.9467 5.884C24.7627 6.036 24.6347 6.264 24.5627 6.568H26.1827ZM35.0238 4.228C35.1358 4.564 35.1918 5.012 35.1918 5.572C35.1918 6.124 35.1238 6.656 34.9878 7.168C34.8518 7.68 34.6438 8.168 34.3638 8.632C34.0918 9.088 33.7078 9.46 33.2118 9.748C32.7238 10.028 32.1598 10.168 31.5198 10.168C30.5198 10.168 29.8278 9.964 29.4438 9.556C29.1878 9.284 29.0598 8.868 29.0598 8.308C29.0598 8.044 29.0918 7.744 29.1558 7.408L29.7198 4.228H31.7598L31.1958 7.42C31.1718 7.54 31.1598 7.648 31.1598 7.744C31.1598 8.2 31.3958 8.428 31.8678 8.428C32.6998 8.428 33.1158 7.556 33.1158 5.812C33.1158 5.404 33.0838 4.952 33.0198 4.456L32.9838 4.228H35.0238ZM38.2896 10.168C36.6256 10.168 35.7936 9.592 35.7936 8.44C35.7936 8.28 35.8096 8.108 35.8416 7.924L36.0936 6.436C36.2296 5.668 36.5816 5.08 37.1496 4.672C37.7256 4.256 38.4856 4.048 39.4296 4.048C41.0376 4.048 41.8416 4.656 41.8416 5.872C41.8416 6.048 41.8256 6.24 41.7936 6.448L41.6496 7.3H37.9896L37.9416 7.576C37.9256 7.672 37.9176 7.76 37.9176 7.84C37.9176 8.28 38.1776 8.5 38.6976 8.5C38.8896 8.5 39.0536 8.44 39.1896 8.32C39.3256 8.2 39.4056 8.06 39.4296 7.9L41.4216 7.924C41.1576 9.42 40.1136 10.168 38.2896 10.168ZM39.7296 6.568C39.7616 6.432 39.7776 6.308 39.7776 6.196C39.7776 6.076 39.7256 5.956 39.6216 5.836C39.5176 5.716 39.3496 5.656 39.1176 5.656C38.8936 5.656 38.6856 5.732 38.4936 5.884C38.3096 6.036 38.1816 6.264 38.1096 6.568H39.7296ZM44.7187 8.152C44.7187 8.36 44.8227 8.464 45.0307 8.464C45.2467 8.464 45.4267 8.424 45.5707 8.344L45.5107 9.7C45.1267 10.012 44.6947 10.168 44.2147 10.168C43.4867 10.168 43.0147 10 42.7987 9.664C42.6627 9.448 42.5947 9.212 42.5947 8.956C42.5947 8.7 42.6107 8.476 42.6427 8.284L43.9507 0.891999H45.9907L44.7307 8.008C44.7227 8.056 44.7187 8.104 44.7187 8.152Z" fill="url(#paint0_linear)"/>
<defs>
<linearGradient id="paint0_linear" x1="0" y1="6" x2="47" y2="6" gradientUnits="userSpaceOnUse">
<stop stop-color="#EF233C"/>
<stop offset="1" stop-color="#240B36"/>
</linearGradient>
</defs>
</svg>
